HIERARCHY
ROOT joint_Root
{
	OFFSET 0.0 0.0 0.0
	CHANNELS 6 Xposition Yposition Zposition Zrotation Xrotation Yrotation 
	JOINT Hips
	{
		OFFSET 4.5925 91.4895 -427.239
		CHANNELS 6 Xposition Yposition Zposition Zrotation Xrotation Yrotation 
		JOINT Spine
		{
			OFFSET 15.7357 0.0 0.0
			CHANNELS 6 Xposition Yposition Zposition Zrotation Xrotation Yrotation 
			JOINT Chest
			{
				OFFSET 8.98455 -0.406207 0.0
				CHANNELS 6 Xposition Yposition Zposition Zrotation Xrotation Yrotation 
				JOINT Neck
				{
					OFFSET 16.3773 0.0 0.0
					CHANNELS 6 Xposition Yposition Zposition Zrotation Xrotation Yrotation 
					JOINT Head
					{
						OFFSET 6.45672 0.0 0.0
						CHANNELS 6 Xposition Yposition Zposition Zrotation Xrotation Yrotation 
						End Site
						{
							OFFSET 0.0 0.0 0.0
						}
					}
				}
				JOINT Shoulder_L
				{
					OFFSET 12.9942 -0.242716 4.98039
					CHANNELS 6 Xposition Yposition Zposition Zrotation Xrotation Yrotation 
					JOINT UpperArm_L
					{
						OFFSET 5.34809 0.0 0.0
						CHANNELS 6 Xposition Yposition Zposition Zrotation Xrotation Yrotation 
						JOINT LowerArm_L
						{
							OFFSET 24.3286 1.87007e-05 0.0
							CHANNELS 6 Xposition Yposition Zposition Zrotation Xrotation Yrotation 
							JOINT Hand_L
							{
								OFFSET 22.2916 0.0 0.0
								CHANNELS 6 Xposition Yposition Zposition Zrotation Xrotation Yrotation 
								End Site
								{
									OFFSET 0.0 0.0 0.0
								}
							}
						}
					}
				}
				JOINT Shoulder_R
				{
					OFFSET 12.9945 -0.242716 -4.98039
					CHANNELS 6 Xposition Yposition Zposition Zrotation Xrotation Yrotation 
					JOINT UpperArm_R
					{
						OFFSET -5.34813 0.0 0.0
						CHANNELS 6 Xposition Yposition Zposition Zrotation Xrotation Yrotation 
						JOINT LowerArm_R
						{
							OFFSET -24.3289 0.000322201 0.0
							CHANNELS 6 Xposition Yposition Zposition Zrotation Xrotation Yrotation 
							JOINT Hand_R
							{
								OFFSET -22.2915 -0.000108084 0.0
								CHANNELS 6 Xposition Yposition Zposition Zrotation Xrotation Yrotation 
								End Site
								{
									OFFSET 0.0 0.0 0.0
								}
							}
						}
					}
				}
			}
		}
		JOINT UpperLeg_L
		{
			OFFSET -2.19248 -6.46944 0.0
			CHANNELS 6 Xposition Yposition Zposition Zrotation Xrotation Yrotation 
			JOINT LowerLeg_L
			{
				OFFSET 39.0811 0.0 -1.23785e-05
				CHANNELS 6 Xposition Yposition Zposition Zrotation Xrotation Yrotation 
				JOINT Foot_L
				{
					OFFSET 40.9854 0.0 -1.26872e-05
					CHANNELS 6 Xposition Yposition Zposition Zrotation Xrotation Yrotation 
					JOINT Toes_L
					{
						OFFSET 11.7543 0.0 0.0
						CHANNELS 6 Xposition Yposition Zposition Zrotation Xrotation Yrotation 
						End Site
						{
							OFFSET 0.0 0.0 0.0
						}
					}
				}
			}
		}
		JOINT UpperLeg_R
		{
			OFFSET -2.19251 6.46944 0.0
			CHANNELS 6 Xposition Yposition Zposition Zrotation Xrotation Yrotation 
			JOINT LowerLeg_R
			{
				OFFSET -39.0811 -0.00228153 -0.0401928
				CHANNELS 6 Xposition Yposition Zposition Zrotation Xrotation Yrotation 
				JOINT Foot_R
				{
					OFFSET -40.9854 0.0 0.0
					CHANNELS 6 Xposition Yposition Zposition Zrotation Xrotation Yrotation 
					JOINT Toes_R
					{
						OFFSET -11.7543 0.0 0.0
						CHANNELS 6 Xposition Yposition Zposition Zrotation Xrotation Yrotation 
						End Site
						{
							OFFSET 0.0 0.0 0.0
						}
					}
				}
			}
		}
	}
}
MOTION
Frames:	4
Frame Time:	0.0333333
0.000000 0.000000 0.000000 0.000000 0.000000 -0.000000 3.839490 89.938100 -511.845000 92.998700 -13.194800 -3.417920 15.735700 0.000005 -0.000001 124.784000 82.595900 -126.297000 8.984550 -0.406207 -0.000000 4.550310 8.475920 -3.363620 16.377300 -0.000001 -0.000001 0.664034 -2.063290 0.257005 6.456720 -0.000001 -0.000000 -5.422990 -5.889440 -1.597450 12.994200 -0.242716 4.980390 -85.338500 -11.936800 -68.484200 5.348090 -0.000007 -0.000001 -65.230900 50.300000 29.078100 24.328600 0.000019 0.000005 9.447200 -0.273010 -91.641200 22.291600 -0.000001 0.000005 8.997470 5.545090 -8.478870 12.994500 -0.242716 -4.980390 90.669000 -5.083540 -82.492400 -5.348130 -0.000001 -0.000004 -44.874900 35.521500 -62.524200 -24.328900 0.000322 -0.000009 -0.676985 0.490713 -125.987000 -22.291500 -0.000108 -0.000004 20.207000 5.585260 -10.496800 -2.192480 -6.469440 -0.000000 178.891000 -4.212030 -38.469900 39.081100 -0.000007 -0.000012 0.016006 -0.015584 45.759500 40.985400 -0.000006 -0.000013 -0.468608 0.720759 -65.857600 11.754300 -0.000000 0.000003 -0.006134 -0.072055 -19.509400 -2.192510 6.469440 -0.000001 171.004000 27.498900 -176.609000 -39.081100 -0.002282 -0.040193 -0.062247 0.156594 22.718200 -40.985400 0.000008 0.000006 6.068860 16.240900 -75.674100 -11.754300 -0.000006 -0.000006 -0.013002 -0.124844 -21.663900
0.000000 0.000000 0.000000 0.000000 0.000000 -0.000000 3.609590 88.395100 -508.741000 91.712000 -14.576500 -2.207700 15.735700 0.000005 -0.000001 123.352000 81.857500 -124.680000 8.984550 -0.406207 -0.000000 5.999290 8.950310 -3.126940 16.377300 -0.000001 -0.000001 -0.268315 -1.685000 -0.110733 6.456720 -0.000001 -0.000000 -6.228560 -5.673500 -1.961350 12.994200 -0.242716 4.980390 -85.866900 -10.637100 -68.620700 5.348090 -0.000007 -0.000001 -64.673000 44.393100 28.202400 24.328600 0.000019 0.000005 8.266390 -0.250988 -91.726000 22.291600 -0.000001 0.000005 9.722670 5.535870 -8.056830 12.994500 -0.242716 -4.980390 90.487500 -4.124540 -83.257000 -5.348130 -0.000001 -0.000004 -41.903300 38.243800 -59.874800 -24.328900 0.000322 -0.000009 -4.227550 2.760450 -123.119000 -22.291500 -0.000108 -0.000004 19.933800 5.591650 -10.859800 -2.192480 -6.469440 -0.000000 179.350000 -8.371730 -38.063700 39.081100 -0.000007 -0.000012 0.021016 -0.021902 43.812500 40.985400 -0.000006 -0.000013 -0.244622 -0.617365 -67.188600 11.754300 -0.000000 0.000003 -0.005873 -0.069689 -19.412900 -2.192510 6.469440 -0.000001 170.989000 22.919300 -174.530000 -39.081100 -0.002282 -0.040193 -0.078315 0.169315 25.738500 -40.985400 0.000008 0.000006 5.303260 13.706800 -78.826700 -11.754300 -0.000006 -0.000006 -0.061667 -0.169398 -21.416300
0.000000 0.000000 0.000000 0.000000 0.000000 -0.000000 3.442040 86.730800 -505.210000 90.555600 -15.826700 -1.470270 15.735700 0.000005 -0.000001 120.268000 81.607300 -121.500000 8.984550 -0.406207 -0.000000 6.880440 8.442440 -2.972430 16.377300 -0.000001 -0.000001 -1.018690 -0.932528 0.008437 6.456720 -0.000001 -0.000000 -6.736320 -4.464060 -1.916780 12.994200 -0.242716 4.980390 -87.115600 -7.475710 -68.832100 5.348090 -0.000007 -0.000001 -64.003700 36.775500 26.401500 24.328600 0.000019 0.000005 7.595520 0.148175 -88.891100 22.291600 -0.000001 0.000005 10.509500 5.544380 -8.444650 12.994500 -0.242716 -4.980390 90.100900 -1.087860 -84.735700 -5.348130 -0.000001 -0.000004 -41.356700 42.641400 -52.936000 -24.328900 0.000322 -0.000009 -7.790300 3.979840 -116.916000 -22.291500 -0.000108 -0.000004 19.088200 5.593830 -10.973200 -2.192480 -6.469440 -0.000000 179.311000 -12.740600 -38.257800 39.081100 -0.000007 -0.000012 0.035594 -0.034177 46.160700 40.985400 -0.000006 -0.000013 0.943081 -3.514830 -69.166900 11.754300 -0.000000 0.000003 -0.005437 -0.065644 -19.248000 -2.192510 6.469440 -0.000001 171.284000 18.418500 -172.975000 -39.081100 -0.002282 -0.040193 -0.081215 0.151791 29.109400 -40.985400 0.000008 0.000006 4.576640 11.041300 -81.477600 -11.754300 -0.000006 -0.000006 -0.015666 -0.141969 -22.366500
0.000000 0.000000 0.000000 0.000000 0.000000 -0.000000 3.341060 85.357000 -501.161000 90.211800 -16.024500 -1.146300 15.735700 0.000005 -0.000001 115.480000 81.902900 -116.979000 8.984550 -0.406207 -0.000000 6.985340 6.953580 -3.422200 16.377300 -0.000001 -0.000001 -1.554420 -0.176351 0.570290 6.456720 -0.000001 -0.000000 -6.879390 -3.494290 -1.100350 12.994200 -0.242716 4.980390 -89.038000 -2.595840 -69.664800 5.348090 -0.000007 -0.000001 -62.649700 27.993300 23.016200 24.328600 0.000019 0.000005 8.186620 1.083340 -82.515700 22.291600 -0.000001 0.000005 12.176700 5.576610 -10.019200 12.994500 -0.242716 -4.980390 89.685000 4.095990 -85.596300 -5.348130 -0.000001 -0.000004 -46.756400 46.107600 -38.315300 -24.328900 0.000322 -0.000009 -9.298730 2.858060 -106.928000 -22.291500 -0.000108 -0.000004 16.818500 5.596350 -11.133600 -2.192480 -6.469440 -0.000000 179.053000 -15.661700 -38.142500 39.081100 -0.000007 -0.000012 -0.082684 0.070532 49.536400 40.985400 -0.000006 -0.000013 0.407626 -3.572040 -66.261100 11.754300 -0.000000 0.000003 -0.004570 -0.057251 -18.905900 -2.192510 6.469440 -0.000001 171.090000 14.919800 -172.206000 -39.081100 -0.002282 -0.040193 -0.061963 0.099053 33.377800 -40.985400 0.000008 0.000006 3.822910 8.566610 -82.075200 -11.754300 -0.000006 -0.000006 -0.032444 -0.228454 -25.938500
